<?xml version="1.0" encoding="UTF-8"?>
<svg version="1.1" xmlns="http://www.w3.org/2000/svg" width="492" height="156">
<path d="M0 0 C0.87269531 0.4125 1.74539062 0.825 2.64453125 1.25 C27.07883713 13.55454316 45.96499023 35.76231603 56.16015625 60.85546875 C60.03735264 75.37241337 56.26697348 89.20593742 49.359375 102.05078125 C36.54788558 123.2136855 15.40545543 143.85799652 -8.62158203 151.4309082 C-12.70453763 152.40785026 -16.69265346 152.48833203 -20.875 152.4375 C-22.19262329 152.42614014 -22.19262329 152.42614014 -23.53686523 152.41455078 C-30.34690866 152.24192132 -35.90254314 151.14675829 -42 148 C-43.32644531 147.36384766 -43.32644531 147.36384766 -44.6796875 146.71484375 C-67.5362598 135.09230911 -87.83629343 114.09291185 -97 90 C-97.36351563 89.10796875 -97.72703125 88.2159375 -98.1015625 87.296875 C-101.07847219 76.37291073 -100.17623099 63.02995537 -95 53 C-94.57589844 52.11570313 -94.15179688 51.23140625 -93.71484375 50.3203125 C-88.30702645 39.68544059 -80.66922308 29.2326435 -72 21 C-71.34 21 -70.68 21 -70 21 C-70 20.34 -70 19.68 -70 19 C-67.91361692 17.16013481 -65.82515448 15.44453067 -63.625 13.75 C-62.98739746 13.25491943 -62.34979492 12.75983887 -61.69287109 12.24975586 C-56.684344 8.41374522 -51.55796621 4.99722785 -46 2 C-45.29230469 1.61199219 -44.58460937 1.22398437 -43.85546875 0.82421875 C-30.75812069 -6.06253214 -13.2895133 -6.84805838 0 0 Z M-65 30 C-77.13680717 44.32911685 -79.08596494 64.62243596 -77.72265625 82.671875 C-76.56040673 95.129737 -73.83543348 107.63838686 -65 117 C-64.26716797 117.81017578 -64.26716797 117.81017578 -63.51953125 118.63671875 C-52.6734355 129.26857064 -35.64974511 130.39452405 -21.375 130.375 C-20.374048 130.37418427 -20.374048 130.37418427 -19.35287476 130.37335205 C-4.43808443 130.31734794 10.50379543 128.55545907 22.08984375 118.1171875 C33.67934218 105.62111096 36.40795638 87.77055365 35.98046875 71.26953125 C35.29169147 56.44806465 32.57282692 39.09281085 21.1328125 28.59375 C-0.96762337 12.07913858 -43.76289215 11.71909756 -65 30 Z " fill="#4A00F8" transform="translate(99,4)"/>
<path d="M0 0 C3.3 0 6.6 0 10 0 C10 8.58 10 17.16 10 26 C12.64 24.68 15.28 23.36 18 22 C27.38599646 19.65350088 38.72770367 19.76386565 47.69140625 23.59765625 C53.03885837 26.84593935 57.38991736 31.88168597 59 38 C61.05718107 48.7430567 61.28602429 60.46643083 55.875 70.25 C52.12797465 75.75001966 47.0631174 78.65871731 40.6875 80.3125 C30.68851726 82.09619503 19.67478121 81.78318747 11 76 C10.67 76.99 10.34 77.98 10 79 C6.7 79 3.4 79 0 79 C0 52.93 0 26.86 0 0 Z M13.28515625 35.8828125 C9.29570246 42.45510415 8.91090068 51.16618931 10.5703125 58.53125 C11.78481316 62.46878898 12.78244548 65.29469297 16 68 C23.69211526 71.247782 33.77480347 71.39145294 41.6875 68.8125 C45.78524999 66.57033491 47.15666985 64.63689144 48.5546875 60.265625 C49.99197894 52.95308963 50.13326305 43.8633381 47 37 C42.84043842 32.47341828 37.73229278 31.38400846 31.8359375 30.77734375 C25.65958652 30.52636129 17.64878084 31.09177138 13.28515625 35.8828125 Z " fill="#001036" transform="translate(194,32)"/>
<path d="M0 0 C6.08639412 4.94519522 8.59984499 10.35299957 10 18 C10 21.96 10 25.92 10 30 C-6.17 30 -22.34 30 -39 30 C-37.17541369 39.38575231 -37.17541369 39.38575231 -33.5625 42.0625 C-25.74144894 44.92386014 -16.32765727 45.37040621 -8.3125 42.9375 C-4.00723473 40.41932598 -3.41216328 38.67779087 -2 34 C5.625 34.875 5.625 34.875 9 36 C7.36258427 41.99054534 5.70228414 46.69791025 1 51 C-10.32934264 56.82331945 -22.43924312 57.69189546 -34.59375 53.90234375 C-41.35798738 51.36575473 -45.04776235 47.45036076 -48 41 C-51.4182223 30.32026919 -51.06022631 18.43434505 -47 8 C-43.55852004 1.98966606 -38.92968125 -1.34379503 -32.35546875 -3.375 C-21.62592934 -5.37351724 -9.72156502 -5.47393423 0 0 Z M-35.62890625 10.10546875 C-37.71123589 12.735252 -37.71123589 12.735252 -39 20 C-26.46 20 -13.92 20 -1 20 C-1.63992352 14.50312536 -1.63992352 14.50312536 -4 10 C-13.91605321 5.04197339 -25.96285333 3.54553356 -35.62890625 10.10546875 Z " fill="#001036" transform="translate(310,57)"/>
<path d="M0 0 C4.90508169 4.00311419 7.46915086 8.87660344 9 15 C9 19.95 9 24.9 9 30 C-6.84 30 -22.68 30 -39 30 C-37.73507118 36.9880023 -37.73507118 36.9880023 -34 42 C-26.4271388 45.36571609 -16.18371824 45.29886547 -8.3125 42.9375 C-4.00723473 40.41932598 -3.41216328 38.67779087 -2 34 C1.46941546 34.45822468 4.67395049 34.89131683 8 36 C7.63790325 41.91424691 6.13069101 45.68691484 2 50 C-6.1289539 55.89747636 -16.17231405 56.88969302 -26 56 C-33.64551593 54.60341909 -39.60392315 52.39607685 -45.1875 46.8125 C-51.00343307 37.78777627 -51.08399308 27.43854093 -50 17 C-48.40635665 9.81634613 -45.746474 3.8098555 -39.75 -0.6875 C-28.39103089 -6.10882617 -10.91918124 -6.5631249 0 0 Z M-36.72265625 10.671875 C-38.50429047 13.5950774 -38.50429047 13.5950774 -39 20 C-26.46 20 -13.92 20 -1 20 C-2.19941909 12.48882822 -2.19941909 12.48882822 -5.1875 9.625 C-13.70137176 4.7058741 -29.006301 3.18298601 -36.72265625 10.671875 Z " fill="#001036" transform="translate(483,57)"/>
<path d="M0 0 C0.74169434 0.00563965 1.48338867 0.0112793 2.24755859 0.01708984 C10.5722927 0.20063015 17.91926794 1.54275105 24.15625 7.44140625 C30.27911067 15.24153993 31.36363521 25.73710178 30.625 35.3125 C29.1604185 44.36522814 26.98730244 51.14769235 19.4375 56.625 C9.16793795 61.79305174 -3.17297793 61.50567339 -13.9296875 58.2265625 C-20.07816179 55.92825102 -24.49010808 52.34115312 -27.28515625 46.3671875 C-30.92472537 36.37953271 -30.97965848 23.33293044 -27.35546875 13.328125 C-24.90821702 8.29712145 -21.49515498 4.69396743 -16.375 2.3125 C-10.80255732 0.6939234 -5.79201824 -0.04637855 0 0 Z M-15.8125 14.9375 C-20.41439707 21.93238355 -20.07871277 31.11899805 -18.625 39.0625 C-17.67756563 42.85877151 -16.72046012 45.05205397 -13.375 47.3125 C-5.53616788 50.72068788 4.83365446 50.76375874 12.8125 47.8125 C15.95969222 46.1102083 16.7041549 45.18537243 18.6875 42 C20.69443616 34.73680246 21.12867849 25.15851764 18.375 18.0625 C15.82403839 14.05384605 13.91639607 12.80323051 9.5 11.125 C0.53253821 9.24472575 -8.03035622 9.74940414 -15.8125 14.9375 Z " fill="#001036" transform="translate(396.375,52.6875)"/>
<path d="M0 0 C1.07765625 0.00902344 2.1553125 0.01804688 3.265625 0.02734375 C4.08546875 0.03894531 4.9053125 0.05054688 5.75 0.0625 C5.75 3.3625 5.75 6.6625 5.75 10.0625 C4.46416016 10.24425781 4.46416016 10.24425781 3.15234375 10.4296875 C-2.79304491 11.30105224 -8.53148588 12.20065819 -14.25 14.0625 C-16.98242135 23.87663139 -17.77318366 33.26895373 -17.9375 43.375 C-17.9707797 44.80927375 -18.00527857 46.24351975 -18.04101562 47.67773438 C-18.12467375 51.13911815 -18.1920398 54.60057902 -18.25 58.0625 C-21.55 58.0625 -24.85 58.0625 -28.25 58.0625 C-28.25 39.2525 -28.25 20.4425 -28.25 1.0625 C-24.95 1.0625 -21.65 1.0625 -18.25 1.0625 C-17.92 2.3825 -17.59 3.7025 -17.25 5.0625 C-16.1775 4.423125 -15.105 3.78375 -14 3.125 C-9.27704494 0.30939218 -5.48436957 -0.05961271 0 0 Z " fill="#001036" transform="translate(358.25,52.9375)"/>
</svg>
